REM DIRINDEX 1\2,1\3
REM DIRNAME folder01,folder02,folder03
TITLE ""
FILE "CD1Track33.mp3" MP3
  TRACK 01 AUDIO
    TITLE "0:"
    INDEX 01 00:00:00
  TRACK 02 AUDIO
    TITLE "3:cjc102_1551"
    INDEX 01 00:00:25
  TRACK 03 AUDIO
    TITLE "0:"
    INDEX 01 00:01:19
  TRACK 04 AUDIO
    TITLE "2:cjc102_1552"
    INDEX 01 00:01:26
  TRACK 05 AUDIO
    TITLE "0:"
    INDEX 01 00:02:38
  TRACK 06 AUDIO
    TITLE "3:cjc102_1553"
    INDEX 01 00:03:14
  TRACK 07 AUDIO
    TITLE "0:"
    INDEX 01 00:03:72
  TRACK 08 AUDIO
    TITLE "2:cjc102_1554"
    INDEX 01 00:04:07
  TRACK 09 AUDIO
    TITLE "0:"
    INDEX 01 00:05:10
  TRACK 10 AUDIO
    TITLE "3:cjc102_1555"
    INDEX 01 00:05:65
  TRACK 11 AUDIO
    TITLE "0:"
    INDEX 01 00:06:67
  TRACK 12 AUDIO
    TITLE "2:cjc102_1556"
    INDEX 01 00:07:05
  TRACK 13 AUDIO
    TITLE "0:"
    INDEX 01 00:08:17
  TRACK 14 AUDIO
    TITLE "3:cjc102_1557"
    INDEX 01 00:08:62
  TRACK 15 AUDIO
    TITLE "0:"
    INDEX 01 00:09:59
  TRACK 16 AUDIO
    TITLE "2:cjc102_1558"
    INDEX 01 00:09:65
  TRACK 17 AUDIO
    TITLE "0:"
    INDEX 01 00:11:05
  TRACK 18 AUDIO
    TITLE "3:cjc102_1559"
    INDEX 01 00:11:42
  TRACK 19 AUDIO
    TITLE "0:"
    INDEX 01 00:12:24
  TRACK 20 AUDIO
    TITLE "2:cjc102_1560"
    INDEX 01 00:13:02
  TRACK 21 AUDIO
    TITLE "0:"
    INDEX 01 00:14:15
  TRACK 22 AUDIO
    TITLE "3:cjc102_1561"
    INDEX 01 00:14:49
  TRACK 23 AUDIO
    TITLE "0:"
    INDEX 01 00:15:46
  TRACK 24 AUDIO
    TITLE "2:cjc102_1562"
    INDEX 01 00:15:50
  TRACK 25 AUDIO
    TITLE "0:"
    INDEX 01 00:16:59
  TRACK 26 AUDIO
    TITLE "3:cjc102_1563"
    INDEX 01 00:17:53
  TRACK 27 AUDIO
    TITLE "0:"
    INDEX 01 00:18:48
  TRACK 28 AUDIO
    TITLE "2:cjc102_1564"
    INDEX 01 00:18:64
  TRACK 29 AUDIO
    TITLE "0:"
    INDEX 01 00:20:02
  TRACK 30 AUDIO
    TITLE "3:cjc102_1565"
    INDEX 01 00:21:11
  TRACK 31 AUDIO
    TITLE "0:"
    INDEX 01 00:22:09
  TRACK 32 AUDIO
    TITLE "2:cjc102_1566"
    INDEX 01 00:22:36
  TRACK 33 AUDIO
    TITLE "0:"
    INDEX 01 00:23:57
  TRACK 34 AUDIO
    TITLE "3:cjc102_1567"
    INDEX 01 00:24:27
  TRACK 35 AUDIO
    TITLE "0:"
    INDEX 01 00:25:21
  TRACK 36 AUDIO
    TITLE "2:cjc102_1568"
    INDEX 01 00:25:70
  TRACK 37 AUDIO
    TITLE "0:"
    INDEX 01 00:26:71
  TRACK 38 AUDIO
    TITLE "3:cjc102_1569"
    INDEX 01 00:28:08
  TRACK 39 AUDIO
    TITLE "0:"
    INDEX 01 00:29:01
  TRACK 40 AUDIO
    TITLE "2:cjc102_1570"
    INDEX 01 00:29:31
  TRACK 41 AUDIO
    TITLE "0:"
    INDEX 01 00:30:36
  TRACK 42 AUDIO
    TITLE "3:cjc102_1571"
    INDEX 01 00:32:00
  TRACK 43 AUDIO
    TITLE "0:"
    INDEX 01 00:32:72
  TRACK 44 AUDIO
    TITLE "2:cjc102_1572"
    INDEX 01 00:32:74
  TRACK 45 AUDIO
    TITLE "0:"
    INDEX 01 00:33:73
  TRACK 46 AUDIO
    TITLE "3:cjc102_1573"
    INDEX 01 00:34:43
  TRACK 47 AUDIO
    TITLE "0:"
    INDEX 01 00:35:57
  TRACK 48 AUDIO
    TITLE "2:cjc102_1574"
    INDEX 01 00:35:59
  TRACK 49 AUDIO
    TITLE "0:"
    INDEX 01 00:36:58
  TRACK 50 AUDIO
    TITLE "3:cjc102_1575"
    INDEX 01 00:37:32
  TRACK 51 AUDIO
    TITLE "0:"
    INDEX 01 00:38:53
  TRACK 52 AUDIO
    TITLE "2:cjc102_1576"
    INDEX 01 00:38:55
  TRACK 53 AUDIO
    TITLE "0:"
    INDEX 01 00:39:62
  TRACK 54 AUDIO
    TITLE "3:cjc102_1577"
    INDEX 01 00:40:21
  TRACK 55 AUDIO
    TITLE "0:"
    INDEX 01 00:41:40
  TRACK 56 AUDIO
    TITLE "2:cjc102_1578"
    INDEX 01 00:41:49
  TRACK 57 AUDIO
    TITLE "0:"
    INDEX 01 00:42:59
  TRACK 58 AUDIO
    TITLE "3:cjc102_1579"
    INDEX 01 00:43:13
  TRACK 59 AUDIO
    TITLE "0:"
    INDEX 01 00:44:22
  TRACK 60 AUDIO
    TITLE "2:cjc102_1580"
    INDEX 01 00:44:71
  TRACK 61 AUDIO
    TITLE "0:"
    INDEX 01 00:46:06
  TRACK 62 AUDIO
    TITLE "3:cjc102_1581"
    INDEX 01 00:47:09
  TRACK 63 AUDIO
    TITLE "0:"
    INDEX 01 00:48:20
  TRACK 64 AUDIO
    TITLE "2:cjc102_1582"
    INDEX 01 00:48:36
  TRACK 65 AUDIO
    TITLE "0:"
    INDEX 01 00:49:41
  TRACK 66 AUDIO
    TITLE "3:cjc102_1583"
    INDEX 01 00:50:21
  TRACK 67 AUDIO
    TITLE "0:"
    INDEX 01 00:51:38
  TRACK 68 AUDIO
    TITLE "2:cjc102_1584"
    INDEX 01 00:51:42
  TRACK 69 AUDIO
    TITLE "0:"
    INDEX 01 00:52:57
  TRACK 70 AUDIO
    TITLE "3:cjc102_1585"
    INDEX 01 00:53:49
  TRACK 71 AUDIO
    TITLE "0:"
    INDEX 01 00:54:66
  TRACK 72 AUDIO
    TITLE "2:cjc102_1586"
    INDEX 01 00:54:70
  TRACK 73 AUDIO
    TITLE "0:"
    INDEX 01 00:56:00
  TRACK 74 AUDIO
    TITLE "3:cjc102_1587"
    INDEX 01 00:56:53
  TRACK 75 AUDIO
    TITLE "0:"
    INDEX 01 00:58:03
  TRACK 76 AUDIO
    TITLE "2:cjc102_1588"
    INDEX 01 00:58:11
  TRACK 77 AUDIO
    TITLE "0:"
    INDEX 01 00:59:14
  TRACK 78 AUDIO
    TITLE "3:cjc102_1589"
    INDEX 01 01:00:10
  TRACK 79 AUDIO
    TITLE "0:"
    INDEX 01 01:01:21
  TRACK 80 AUDIO
    TITLE "2:cjc102_1590"
    INDEX 01 01:01:23
  TRACK 81 AUDIO
    TITLE "0:"
    INDEX 01 01:02:30
  TRACK 82 AUDIO
    TITLE "3:cjc102_1591"
    INDEX 01 01:03:24
  TRACK 83 AUDIO
    TITLE "0:"
    INDEX 01 01:04:48
  TRACK 84 AUDIO
    TITLE "2:cjc102_1592"
    INDEX 01 01:04:52
  TRACK 85 AUDIO
    TITLE "0:"
    INDEX 01 01:05:62
  TRACK 86 AUDIO
    TITLE "3:cjc102_1593"
    INDEX 01 01:06:34
  TRACK 87 AUDIO
    TITLE "0:"
    INDEX 01 01:07:53
  TRACK 88 AUDIO
    TITLE "2:cjc102_1594"
    INDEX 01 01:07:57
  TRACK 89 AUDIO
    TITLE "0:"
    INDEX 01 01:08:56
  TRACK 90 AUDIO
    TITLE "3:cjc102_1595"
    INDEX 01 01:09:56
  TRACK 91 AUDIO
    TITLE "0:"
    INDEX 01 01:10:65
  TRACK 92 AUDIO
    TITLE "2:cjc102_1596"
    INDEX 01 01:10:71
  TRACK 93 AUDIO
    TITLE "0:"
    INDEX 01 01:12:03
  TRACK 94 AUDIO
    TITLE "3:cjc102_1597"
    INDEX 01 01:13:02
  TRACK 95 AUDIO
    TITLE "0:"
    INDEX 01 01:14:33
  TRACK 96 AUDIO
    TITLE "2:cjc102_1598"
    INDEX 01 01:14:43
  TRACK 97 AUDIO
    TITLE "0:"
    INDEX 01 01:15:46
  TRACK 98 AUDIO
    TITLE "3:cjc102_1599"
    INDEX 01 01:16:38
  TRACK 99 AUDIO
    TITLE "0:"
    INDEX 01 01:17:59
  TRACK 100 AUDIO
    TITLE "2:cjc102_1600"
    INDEX 01 01:18:00
  TRACK 101 AUDIO
    TITLE "0:"
    INDEX 01 01:19:17
  TRACK 102 AUDIO
    TITLE "3:cjc102_1601"
    INDEX 01 01:20:06
  TRACK 103 AUDIO
    TITLE "0:"
    INDEX 01 01:21:43
  TRACK 104 AUDIO
    TITLE "2:cjc102_1602"
    INDEX 01 01:21:45
  TRACK 105 AUDIO
    TITLE "0:"
    INDEX 01 01:22:60
  TRACK 106 AUDIO
    TITLE "3:cjc102_1603"
    INDEX 01 01:23:30
  TRACK 107 AUDIO
    TITLE "0:"
    INDEX 01 01:24:55
  TRACK 108 AUDIO
    TITLE "2:cjc102_1604"
    INDEX 01 01:24:63
  TRACK 109 AUDIO
    TITLE "0:"
    INDEX 01 01:25:58
  TRACK 110 AUDIO
    TITLE "3:cjc102_1605"
    INDEX 01 01:26:15
  TRACK 111 AUDIO
    TITLE "0:"
    INDEX 01 01:27:50
  TRACK 112 AUDIO
    TITLE "2:cjc102_1606"
    INDEX 01 01:28:16
  TRACK 113 AUDIO
    TITLE "0:"
    INDEX 01 01:29:15
  TRACK 114 AUDIO
    TITLE "3:cjc102_1607"
    INDEX 01 01:30:48
  TRACK 115 AUDIO
    TITLE "0:"
    INDEX 01 01:32:06
  TRACK 116 AUDIO
    TITLE "2:cjc102_1608"
    INDEX 01 01:32:23
  TRACK 117 AUDIO
    TITLE "0:"
    INDEX 01 01:33:36
  TRACK 118 AUDIO
    TITLE "2:cjc102_1609"
    INDEX 01 01:33:72
  TRACK 119 AUDIO
    TITLE "0:"
    INDEX 01 01:35:10
  TRACK 120 AUDIO
    TITLE "3:cjc102_1610"
    INDEX 01 01:35:16
  TRACK 121 AUDIO
    TITLE "0:"
    INDEX 01 01:36:35
  TRACK 122 AUDIO
    TITLE "2:cjc102_1611"
    INDEX 01 01:36:47
  TRACK 123 AUDIO
    TITLE "0:"
    INDEX 01 01:37:64
  TRACK 124 AUDIO
    TITLE "2:cjc102_1612"
    INDEX 01 01:38:36
  TRACK 125 AUDIO
    TITLE "0:"
    INDEX 01 01:39:37
  TRACK 126 AUDIO
    TITLE "3:cjc102_1613"
    INDEX 01 01:40:33
  TRACK 127 AUDIO
    TITLE "0:"
    INDEX 01 01:41:65
  TRACK 128 AUDIO
    TITLE "2:cjc102_1614"
    INDEX 01 01:41:67
  TRACK 129 AUDIO
    TITLE "0:"
    INDEX 01 01:43:19
  TRACK 130 AUDIO
    TITLE "2:cjc102_1615"
    INDEX 01 01:43:64
  TRACK 131 AUDIO
    TITLE "0:"
    INDEX 01 01:45:14
  TRACK 132 AUDIO
    TITLE "3:cjc102_1616"
    INDEX 01 01:45:47
  TRACK 133 AUDIO
    TITLE "0:"
    INDEX 01 01:47:03
  TRACK 134 AUDIO
    TITLE "2:cjc102_1617"
    INDEX 01 01:47:07
  TRACK 135 AUDIO
    TITLE "0:"
    INDEX 01 01:48:18
  TRACK 136 AUDIO
    TITLE "2:cjc102_1618"
    INDEX 01 01:48:63
  TRACK 137 AUDIO
    TITLE "0:"
    INDEX 01 01:50:07
  TRACK 138 AUDIO
    TITLE "3:cjc102_1619"
    INDEX 01 01:51:13
  TRACK 139 AUDIO
    TITLE "0:"
    INDEX 01 01:52:55
  TRACK 140 AUDIO
    TITLE "2:cjc102_1620"
    INDEX 01 01:52:57
  TRACK 141 AUDIO
    TITLE "0:"
    INDEX 01 01:53:74
  TRACK 142 AUDIO
    TITLE "2:cjc102_1621"
    INDEX 01 01:54:39
  TRACK 143 AUDIO
    TITLE "0:"
    INDEX 01 01:55:60
  TRACK 144 AUDIO
    TITLE "3:cjc102_1622"
    INDEX 01 01:56:47
  TRACK 145 AUDIO
    TITLE "0:"
    INDEX 01 01:57:72
  TRACK 146 AUDIO
    TITLE "2:cjc102_1623"
    INDEX 01 01:58:11
  TRACK 147 AUDIO
    TITLE "0:"
    INDEX 01 01:59:10
  TRACK 148 AUDIO
    TITLE "2:cjc102_1624"
    INDEX 01 01:59:71
  TRACK 149 AUDIO
    TITLE "0:"
    INDEX 01 02:01:05
